<?xml version="1.0" encoding="utf-8"?>
<!-- Generator: Adobe Illustrator 23.1.1, SVG Export Plug-In . SVG Version: 6.00 Build 0)  -->
<svg version="1.1" id="Layer_1" xmlns="http://www.w3.org/2000/svg" xmlns:xlink="http://www.w3.org/1999/xlink" x="0px" y="0px"
	 viewBox="0 0 1200 200" style="enable-background:new 0 0 1200 200;" xml:space="preserve">
<style type="text/css">
	.st0{opacity:0.5;fill:#2CA2DB;}
	.st1{fill:#2CA2DB;}
</style>
<path class="st0" d="M-41.06,120.33c-0.3-31.34,60.48-68.6,154.05-88.74c207.98-44.76,318.6,50.9,622.88,82.05
	c204.23,20.91,317.49,32.5,447.07-26.79c80.61-36.89,127.6-82.94,177.49-63.63c80.9,31.31,115.58,213.67,73.67,303.07
	C1304.63,602.46,519.01,686.23,76.15,336.33c-6.31-4.99-115.47-55.39-108.84-102.14c2.1-14.79,14.48-20.52,16.74-41.86
	C-12.31,158.1-40.86,141.69-41.06,120.33z"/>
<path class="st1" d="M-93.68,158.52c-0.3-31.34,60.48-68.6,154.05-88.74c207.98-44.76,318.6,50.9,622.88,82.05
	c204.23,20.91,317.49,32.5,447.07-26.79c80.61-36.89,127.6-82.94,177.49-63.63c80.9,31.31,115.58,213.67,73.67,303.07
	C1252.01,640.64,466.39,724.41,23.53,374.51c-6.31-4.99-115.47-55.39-108.84-102.14c2.1-14.79,14.48-20.52,16.74-41.86
	C-64.93,196.28-93.48,179.88-93.68,158.52z"/>
</svg>
